<?xml version="1.0" standalone="no"?><!DOCTYPE svg PUBLIC "-//W3C//DTD SVG 1.1//EN" "http://www.w3.org/Graphics/SVG/1.1/DTD/svg11.dtd"><svg t="1546075218095" class="icon" style="" viewBox="0 0 1166 1024" version="1.1" xmlns="http://www.w3.org/2000/svg" p-id="2561" xmlns:xlink="http://www.w3.org/1999/xlink" width="227.734375" height="200"><defs><style type="text/css"></style></defs><path d="M690.53228 600.725H513.11028a35.591 35.591 0 0 1 0-71.182h177.422a35.591 35.591 0 0 1 0 71.182z" fill="#ffffff" p-id="2562"></path><path d="M190.23228 896.551H92.54628A92.616 92.616 0 0 1 0.00028 804.061v-91.056a120.482 120.482 0 0 1 84.273-115.173l199.109-66.421a35.591 35.591 0 0 1 22.473 67.53l-199.292 66.464-0.561 0.182a49.567 49.567 0 0 0-34.82 47.432v91.057a21.35 21.35 0 0 0 21.364 21.293h97.686a35.591 35.591 0 1 1 0 71.182zM717.92128 896.551h-344.48a35.591 35.591 0 1 1 0-71.182h344.48a35.591 35.591 0 1 1 0 71.182z" fill="#ffffff" p-id="2563"></path><path d="M301.24828 600.725a35.605 35.605 0 0 1-29.692-55.17l90.467-137.393a150.287 150.287 0 0 1 131.24-76.689h317.71a35.591 35.591 0 1 1 0 71.183h-317.71a79.076 79.076 0 0 0-69.525 41.013q-0.702 1.292-1.502 2.514L331.01028 584.728a35.563 35.563 0 0 1-29.762 15.997zM287.48328 984.729c-67.025 0-121.55-54.244-121.55-120.932s54.525-120.931 121.55-120.931 121.55 54.243 121.55 120.931-54.525 120.932-121.55 120.932z m0-170.667c-27.768 0-50.367 22.318-50.367 49.735s22.6 49.735 50.367 49.735 50.367-22.318 50.367-49.735-22.599-49.735-50.367-49.735zM803.88028 984.729c-67.026 0-121.55-54.244-121.55-120.932s54.524-120.931 121.55-120.931a121.086 121.086 0 0 1 85.944 35.408 35.591 35.591 0 0 1-50.199 50.48 50.339 50.339 0 0 0-35.746-14.692c-27.767 0-50.367 22.318-50.367 49.735s22.6 49.735 50.367 49.735a50.339 50.339 0 0 0 35.746-14.621 35.591 35.591 0 1 1 50.199 50.48 121.086 121.086 0 0 1-85.945 35.338z" fill="#ffffff" p-id="2564"></path><path d="M944.51728 1024a107.139 107.139 0 0 1-106.999-107.055V416.52a222.101 222.101 0 0 1-71.716-326.024 35.591 35.591 0 0 1 59.567 3.427l64.076 112.097 48.147 0.351 24.13-41.757-63.204-110.692A35.591 35.591 0 0 1 926.60828 0.773C933.01528 0.253 938.91428 0 944.51828 0c122.336 0 221.919 99.582 221.919 222.003a221.37 221.37 0 0 1-114.864 194.516v500.44A107.139 107.139 0 0 1 944.51728 1024zM797.53028 188.687a151.186 151.186 0 0 0 89.259 172.647 35.591 35.591 0 0 1 21.953 32.852V916.96a35.802 35.802 0 1 0 71.632 0V394.186a35.591 35.591 0 0 1 21.925-32.866 150.89 150.89 0 0 0-6.938-281.26l38.316 67.024a35.591 35.591 0 0 1-0.085 35.465l-44.79 77.377a35.45 35.45 0 0 1-31.083 17.781l-89.344-0.66a35.591 35.591 0 0 1-30.647-17.936z" fill="#ffffff" p-id="2565"></path></svg>